<svg width="133" height="127" viewBox="0 0 133 127" fill="none" xmlns="http://www.w3.org/2000/svg">
<path d="M13.5 0.875C6.14625 0.875 0.25 6.77125 0.25 14.125V80.375C0.25 83.8891 1.64598 87.2593 4.13083 89.7442C6.61569 92.229 9.98588 93.625 13.5 93.625H66.5V126.75L86.375 106.875L106.25 126.75V93.625H119.5C123.014 93.625 126.384 92.229 128.869 89.7442C131.354 87.2593 132.75 83.8891 132.75 80.375V14.125C132.75 10.6109 131.354 7.24069 128.869 4.75583C126.384 2.27098 123.014 0.875 119.5 0.875H13.5ZM66.5 14.125L86.375 27.375L106.25 14.125V37.3125L126.125 47.25L106.25 57.1875V80.375L86.375 67.125L66.5 80.375V57.1875L46.625 47.25L66.5 37.3125V14.125ZM13.5 14.125H46.625V27.375H13.5V14.125ZM13.5 40.625H33.375V53.875H13.5V40.625ZM13.5 67.125H46.625V80.375H13.5V67.125Z" fill="#ffffff"/>
</svg>
