<svg width="188" height="154" viewBox="0 0 188 154" fill="none" xmlns="http://www.w3.org/2000/svg">
<path d="M0.925293 153.5V129.7C0.925293 125.025 2.12946 120.633 4.53779 116.525C6.94613 112.417 10.2753 109.3 14.5253 107.175C21.7503 103.492 29.8961 100.375 38.9628 97.825C48.0295 95.275 58.017 94 68.9253 94C79.8336 94 89.8211 95.275 98.8878 97.825C107.954 100.375 116.1 103.492 123.325 107.175C127.575 109.3 130.904 112.417 133.313 116.525C135.721 120.633 136.925 125.025 136.925 129.7V153.5H0.925293ZM68.9253 85.5C59.5753 85.5 51.5711 82.1708 44.9128 75.5125C38.2545 68.8542 34.9253 60.85 34.9253 51.5H32.8003C31.5253 51.5 30.4996 51.1118 29.7233 50.3355C28.947 49.5592 28.556 48.5307 28.5503 47.25C28.5446 45.9693 28.9356 44.9408 29.7233 44.1645C30.511 43.3882 31.5366 43 32.8003 43H34.9253C34.9253 36.625 36.4836 30.8875 39.6003 25.7875C42.717 20.6875 46.8253 16.65 51.9253 13.675V21.75C51.9253 23.025 52.3163 24.0535 53.0983 24.8355C53.8803 25.6175 54.906 26.0057 56.1753 26C57.4446 25.9943 58.4731 25.6062 59.2608 24.8355C60.0485 24.0648 60.4366 23.0363 60.4253 21.75V10.275C61.7003 9.85 63.0461 9.53267 64.4628 9.323C65.8795 9.11333 67.367 9.00567 68.9253 9C70.4836 8.99433 71.9711 9.102 73.3878 9.323C74.8045 9.544 76.1503 9.86133 77.4253 10.275V21.75C77.4253 23.025 77.8163 24.0535 78.5983 24.8355C79.3803 25.6175 80.406 26.0057 81.6753 26C82.9446 25.9943 83.9731 25.6062 84.7608 24.8355C85.5485 24.0648 85.9366 23.0363 85.9253 21.75V13.675C91.0253 16.65 95.1336 20.6875 98.2503 25.7875C101.367 30.8875 102.925 36.625 102.925 43H105.05C106.325 43 107.354 43.391 108.136 44.173C108.918 44.955 109.306 45.9807 109.3 47.25C109.295 48.5193 108.906 49.5478 108.136 50.3355C107.365 51.1232 106.337 51.5113 105.05 51.5H102.925C102.925 60.85 99.5961 68.8542 92.9378 75.5125C86.2795 82.1708 78.2753 85.5 68.9253 85.5ZM68.9253 68.5C73.6003 68.5 77.6038 66.8368 80.9358 63.5105C84.2678 60.1842 85.931 56.1807 85.9253 51.5H51.9253C51.9253 56.175 53.5913 60.1785 56.9233 63.5105C60.2553 66.8425 64.256 68.5057 68.9253 68.5ZM132.675 102.5L131.4 96.125C130.55 95.8417 129.737 95.5243 128.961 95.173C128.184 94.8217 127.439 94.289 126.725 93.575L120.775 95.7L116.525 88.05L121.2 83.8V78.7L116.525 74.45L120.775 66.8L126.725 68.925C127.292 68.3583 128 67.8625 128.85 67.4375C129.7 67.0125 130.55 66.6583 131.4 66.375L132.675 60H141.175L142.45 66.375C143.3 66.6583 144.15 67.0125 145 67.4375C145.85 67.8625 146.559 68.3583 147.125 68.925L153.075 66.8L157.325 74.45L152.65 78.7V83.8L157.325 88.05L153.075 95.7L147.125 93.575C146.417 94.2833 145.675 94.816 144.898 95.173C144.122 95.53 143.306 95.8473 142.45 96.125L141.175 102.5H132.675ZM136.925 87.625C138.625 87.625 140.113 86.9875 141.388 85.7125C142.663 84.4375 143.3 82.95 143.3 81.25C143.3 79.55 142.663 78.0625 141.388 76.7875C140.113 75.5125 138.625 74.875 136.925 74.875C135.225 74.875 133.738 75.5125 132.463 76.7875C131.188 78.0625 130.55 79.55 130.55 81.25C130.55 82.95 131.188 84.4375 132.463 85.7125C133.738 86.9875 135.225 87.625 136.925 87.625ZM152.225 60L150.525 51.075C149.25 50.65 148.083 50.1202 147.023 49.4855C145.964 48.8508 145.006 48.1057 144.15 47.25L135.225 50.225L129.275 40.025L136.5 33.65C136.217 32.9417 136.075 32.375 136.075 31.95V28.55C136.075 28.125 136.217 27.5583 136.5 26.85L129.275 20.475L135.225 10.275L144.15 13.25C145 12.4 145.958 11.6548 147.023 11.0145C148.089 10.3742 149.256 9.84433 150.525 9.425L152.225 0.5H164.125L165.825 9.425C167.1 9.85 168.27 10.3827 169.336 11.023C170.401 11.6633 171.356 12.4057 172.2 13.25L181.125 10.275L187.075 20.475L179.85 26.85C180.134 27.5583 180.275 28.125 180.275 28.55V31.95C180.275 32.375 180.134 32.9417 179.85 33.65L187.075 40.025L181.125 50.225L172.2 47.25C171.35 48.1 170.395 48.8452 169.336 49.4855C168.276 50.1258 167.106 50.6557 165.825 51.075L164.125 60H152.225ZM158.175 40.875C161.15 40.875 163.666 39.8465 165.723 37.7895C167.78 35.7325 168.806 33.2193 168.8 30.25C168.795 27.2807 167.766 24.7647 165.715 22.702C163.663 20.6393 161.15 19.6137 158.175 19.625C155.2 19.6363 152.684 20.6648 150.627 22.7105C148.57 24.7562 147.545 27.2693 147.55 30.25C147.556 33.2307 148.584 35.7467 150.636 37.798C152.687 39.8493 155.2 40.875 158.175 40.875Z" fill="#ffffff"/>
</svg>
