<svg width="120" height="120" viewBox="0 0 120 120" fill="none" xmlns="http://www.w3.org/2000/svg">
<path d="M54 15C54 14.2044 53.6839 13.4413 53.1213 12.8787C52.5587 12.3161 51.7957 12 51 12C50.2043 12 49.4413 12.3161 48.8787 12.8787C48.3161 13.4413 48 14.2044 48 15V39.15C41.1144 39.8419 34.6798 42.8931 29.7865 47.7865C24.8931 52.6798 21.8419 59.1144 21.15 66H48V39.15C49.995 38.9495 52.005 38.9495 54 39.15V15ZM15 66H21.15C20.9495 67.995 20.9495 70.005 21.15 72H15C14.2044 72 13.4413 71.6839 12.8787 71.1213C12.3161 70.5587 12 69.7957 12 69C12 68.2043 12.3161 67.4413 12.8787 66.8787C13.4413 66.3161 14.2044 66 15 66ZM48 105V98.85C49.995 99.0505 52.005 99.0505 54 98.85V105C54 105.796 53.6839 106.559 53.1213 107.121C52.5587 107.684 51.7957 108 51 108C50.2043 108 49.4413 107.684 48.8787 107.121C48.3161 106.559 48 105.796 48 105ZM80.856 72H105C105.796 72 106.559 71.6839 107.121 71.1213C107.684 70.5587 108 69.7957 108 69C108 68.2043 107.684 67.4413 107.121 66.8787C106.559 66.3161 105.796 66 105 66H80.85C81.0505 67.995 81.0565 70.005 80.856 72H54V98.85C60.8867 98.1594 67.3227 95.1088 72.2172 90.2153C77.1118 85.3218 80.1638 78.8865 80.856 72ZM48 98.85C41.1144 98.1581 34.6798 95.1069 29.7865 90.2135C24.8931 85.3202 21.8419 78.8856 21.15 72H48V98.85ZM54 66H80.85C80.1581 59.1144 77.1069 52.6798 72.2135 47.7865C67.3202 42.8931 60.8856 39.8419 54 39.15V66Z" fill="#ffffff"/>
</svg>
